<?xml version="1.0" encoding="utf-8"?>
<!-- Generator: Adobe Illustrator 23.0.1, SVG Export Plug-In . SVG Version: 6.00 Build 0)  -->
<svg version="1.1" id="Layer_1" xmlns="http://www.w3.org/2000/svg" xmlns:xlink="http://www.w3.org/1999/xlink" x="0px" y="0px"
	 viewBox="0 0 97.2 92.64" style="enable-background:new 0 0 97.2 92.64;" xml:space="preserve">
<style type="text/css">
	.st0{fill:#FDCA3F;}
	.st1{fill:none;}
	.st2{fill:none;stroke:#000000;stroke-width:4;stroke-linecap:round;stroke-miterlimit:10;}
</style>
<ellipse class="st0" cx="48.58" cy="46.3" rx="45.5" ry="45.5"/>
<ellipse class="st1" cx="48.83" cy="46.32" rx="45.5" ry="45.5"/>
<line class="st2" x1="62.24" y1="16.87" x2="78.56" y2="36.8"/>
<path class="st2" d="M62.33,45.66c0.01,3.88,0.02,7.75,0.03,11.63"/>
<path class="st2" d="M62.24,16.87c0.01,3.65,0.02,7.29,0.03,10.94"/>
<line class="st2" x1="62.36" y1="57.29" x2="78.56" y2="37.36"/>
<line class="st2" x1="62.12" y1="28.21" x2="42.68" y2="28.21"/>
<line class="st2" x1="35.16" y1="74.16" x2="18.84" y2="54.23"/>
<line class="st2" x1="35.16" y1="74.16" x2="35.16" y2="63.11"/>
<line class="st2" x1="35.04" y1="33.73" x2="18.84" y2="53.66"/>
<line class="st2" x1="35.04" y1="33.73" x2="35.04" y2="44.78"/>
<line class="st2" x1="35.28" y1="62.81" x2="54.72" y2="62.81"/>
<line class="st2" x1="35.04" y1="45.29" x2="62.24" y2="45.29"/>
</svg>
