<?xml version="1.0" encoding="utf-8"?>
<!-- Generator: Adobe Illustrator 23.0.1, SVG Export Plug-In . SVG Version: 6.00 Build 0)  -->
<svg version="1.1" id="Layer_1" xmlns="http://www.w3.org/2000/svg" xmlns:xlink="http://www.w3.org/1999/xlink" x="0px" y="0px"
	 viewBox="0 0 99.84 98.08" style="enable-background:new 0 0 99.84 98.08;" xml:space="preserve">
<style type="text/css">
	.st0{fill:#FDCA3F;}
	.st1{fill:none;stroke:#000000;stroke-width:4;stroke-miterlimit:10;}
	.st2{fill:none;stroke:#000000;stroke-width:4;stroke-linecap:round;stroke-miterlimit:10;}
</style>
<ellipse class="st0" cx="50.52" cy="51.14" rx="45.5" ry="45.5"/>
<path class="st1" d="M26.28,77.44L26.28,77.44c-2.97,0-5.4-2.43-5.4-5.4V61.89c0-2.97,2.43-5.4,5.4-5.4h0c2.97,0,5.4,2.43,5.4,5.4
	v10.15C31.68,75.01,29.25,77.44,26.28,77.44z"/>
<path class="st1" d="M33.24,73.47h31.04L77,62.67c0,0,1.69-1.44,3.53-3c-1.45-3.37-5.33-3.56-7.06-1.02"/>
<path class="st2" d="M121.92,17.28"/>
<path class="st2" d="M46.56,46.56"/>
<line class="st1" x1="62.44" y1="54.42" x2="62.44" y2="54.42"/>
<path class="st1" d="M43.68,57.07c-3.76,0-6.91,1.38-7.73,3.23c-0.13,0-0.21,0-0.21,0h-4.06"/>
<path class="st1" d="M52.23,61.66c0-2.53-3.82-4.59-8.55-4.59"/>
<path class="st1" d="M74.03,58.12l-10.57,8.21c-3.27,0.12-13.5,0.5-13.5,0.5"/>
<path class="st1" d="M51.24,59.61c7.8-0.14,14.16,2.38,14.22,5.62"/>
<circle class="st1" cx="50.52" cy="35.33" r="13.89"/>
<g>
	<g>
		<path d="M49.21,42.55c0,0-0.28-0.08-0.84-0.23s-1.09-0.38-1.58-0.68s-0.95-0.68-1.38-1.14l1.34-1.62
			c0.47,0.57,0.99,0.99,1.56,1.27s1.19,0.42,1.86,0.42c0.92,0,1.61-0.18,2.07-0.54s0.68-0.91,0.68-1.65v-0.01
			c0-0.47-0.11-0.84-0.33-1.11s-0.51-0.48-0.86-0.62s-0.8-0.26-1.35-0.36c-0.02-0.01-0.04-0.01-0.05-0.01s-0.03,0-0.05-0.01
			c-0.03-0.01-0.07-0.01-0.1-0.02s-0.07-0.01-0.1-0.02c-0.87-0.16-1.58-0.35-2.12-0.55c-0.54-0.2-1-0.57-1.39-1.1
			s-0.58-1.28-0.58-2.26v-0.01c0-0.95,0.17-1.74,0.52-2.37s0.86-1.1,1.55-1.42c0.69-0.32,1.55-0.47,2.58-0.47
			c0.46,0,0.91,0.05,1.35,0.14s0.89,0.24,1.32,0.43s0.87,0.43,1.3,0.72l-1.2,1.65c-0.48-0.33-0.95-0.57-1.41-0.73
			s-0.91-0.24-1.36-0.24c-0.86,0-1.5,0.18-1.93,0.53s-0.64,0.89-0.64,1.6v0.01c0,0.49,0.12,0.87,0.37,1.15s0.56,0.48,0.93,0.61
			s0.89,0.27,1.54,0.41c0.03,0.01,0.05,0.01,0.08,0.02s0.06,0.01,0.09,0.02s0.06,0.01,0.09,0.02s0.06,0.01,0.09,0.02
			c0.77,0.17,1.41,0.38,1.93,0.62s0.95,0.64,1.29,1.18s0.52,1.28,0.52,2.21v0.02c0,0.92-0.18,1.68-0.54,2.29s-0.89,1.06-1.61,1.37
			s-1.61,0.45-2.68,0.45C49.52,42.55,49.21,42.55,49.21,42.55z M49.34,26.47h1.99v2.23h-1.99V26.47z M49.34,41.77h1.99v2.35h-1.99
			V41.77z"/>
	</g>
</g>
</svg>
