<?xml version="1.0" encoding="utf-8"?>
<!-- Generator: Adobe Illustrator 23.0.1, SVG Export Plug-In . SVG Version: 6.00 Build 0)  -->
<svg version="1.1" id="Layer_1" xmlns="http://www.w3.org/2000/svg" xmlns:xlink="http://www.w3.org/1999/xlink" x="0px" y="0px"
	 viewBox="0 0 97.2 92.6" style="enable-background:new 0 0 97.2 92.6;" xml:space="preserve">
<style type="text/css">
	.st0{fill:#FDCA3F;}
	.st1{fill:none;}
	.st2{fill:none;stroke:#000000;stroke-width:4;stroke-linecap:round;stroke-miterlimit:10;}
	.st3{fill:none;stroke:#000000;stroke-width:4;stroke-miterlimit:10;}
	.st4{fill:#FDCA3F;stroke:#000000;stroke-width:4;stroke-miterlimit:10;}
</style>
<ellipse class="st0" cx="48.6" cy="46.3" rx="45.5" ry="45.5"/>
<ellipse class="st1" cx="48.8" cy="46.3" rx="45.5" ry="45.5"/>
<path class="st2" d="M62.2,27.8"/>
<path class="st2" d="M48.8,10.2"/>
<path class="st2" d="M65.6,19.9"/>
<path class="st2" d="M35.2,74.2"/>
<path class="st2" d="M35,33.7"/>
<path class="st2" d="M62.2,45.3"/>
<path class="st2" d="M15.2,29.5"/>
<path class="st2" d="M48.8,10.2"/>
<path class="st2" d="M72.6,15.1"/>
<path class="st2" d="M65.6,15.1"/>
<path class="st2" d="M65.6,19.9"/>
<path class="st2" d="M65.6,15.1"/>
<line class="st1" x1="72.6" y1="24.3" x2="81.5" y2="29.5"/>
<line class="st0" x1="29.6" y1="21.3" x2="29.6" y2="21.3"/>
<path class="st2" d="M72.1,43.5c0-1.7,0-3.4,0-5.2c3.4,0,6.7,0,10.1,0C71,28.7,59.9,19.1,48.8,9.4C37.9,18.9,27,28.4,16.1,37.8
	c-0.2,0.2-0.4,0.3-0.6,0.5c0,0,4.8,0,10.1,0c0,18.6,0,37.2,0,37.2h46.5C72.1,75.6,72.1,60.3,72.1,43.5z"/>
<line class="st0" x1="27.1" y1="16.7" x2="17.2" y2="36.2"/>
<line class="st0" x1="22.2" y1="22.1" x2="58.6" y2="29.5"/>
<path class="st3" d="M53.4,75.1c0,0.2,0,0.3-0.1,0.5"/>
<path class="st3" d="M56,75.2c0-0.1,0-0.1,0-0.2"/>
<path class="st4" d="M56,77.5c0-4,0-26,0-26H41.6c0,0,0,21.8,0,26"/>
<rect x="43.7" y="75.3" class="st0" width="10.2" height="4.4"/>
</svg>
