<?xml version="1.0" encoding="utf-8"?>
<!-- Generator: Adobe Illustrator 23.0.1, SVG Export Plug-In . SVG Version: 6.00 Build 0)  -->
<svg version="1.1" id="Layer_1" xmlns="http://www.w3.org/2000/svg" xmlns:xlink="http://www.w3.org/1999/xlink" x="0px" y="0px"
	 viewBox="0 0 99.84 95.28" style="enable-background:new 0 0 99.84 95.28;" xml:space="preserve">
<style type="text/css">
	.st0{fill:#FDCA3F;}
	.st1{fill:none;stroke:#000000;stroke-width:4;stroke-linecap:round;stroke-miterlimit:10;}
	.st2{fill:#EDEDED;stroke:#000000;stroke-linecap:round;stroke-miterlimit:10;}
	.st3{fill:#FDCA3F;stroke:#000000;stroke-width:4;stroke-linecap:round;stroke-miterlimit:10;}
	.st4{stroke:#000000;stroke-width:4;stroke-linecap:round;stroke-miterlimit:10;}
</style>
<ellipse class="st0" cx="50.58" cy="48.3" rx="45.5" ry="45.5"/>
<path class="st1" d="M121.92,17.28"/>
<path class="st1" d="M46.56,46.56"/>
<line class="st2" x1="29.04" y1="35.04" x2="36.72" y2="35.04"/>
<path class="st3" d="M65.82,76.38H35.34c-6.6,0-12-5.4-12-12V32.22c0-6.6,5.4-12,12-12h30.48c6.6,0,12,5.4,12,12v32.16
	C77.82,70.98,72.42,76.38,65.82,76.38z"/>
<path class="st1" d="M71.22,38.88c-13.92,0-27.84,0-41.76,0c0.72-1.19,8.24-13.22,21.3-12.96C63.31,26.17,70.42,37.55,71.22,38.88z"
	/>
<line class="st4" x1="50.34" y1="36.72" x2="53.81" y2="32.4"/>
</svg>
